<svg xmlns="http://www.w3.org/2000/svg" viewBox="0 0 100 100">
  <defs>
    <filter id="shadow" x="-20%" y="-20%" width="140%" height="140%">
      <feDropShadow dx="2" dy="3" stdDeviation="1" flood-color="#000000" flood-opacity="0.3"/>
    </filter>
  </defs>
  <g transform="rotate(-8, 50, 50)" filter="url(#shadow)">
    <!-- Bubble letter A -->
    <path
      d="M12 78 Q8 78 8 72 L8 70 Q8 65 12 60 L32 22 Q36 16 42 16 Q48 16 52 22 L54 26 Q52 24 48 28 L32 58 L48 58 L52 50 Q54 46 58 48 Q62 50 60 54 L54 66 Q52 72 46 72 L38 72 L36 76 Q34 80 28 80 L18 80 Q12 80 12 78 Z M32 58 L28 66 L38 66 L38 58 Z"
      fill="#FF6663"
      stroke="#000000"
      stroke-width="3"
      stroke-linejoin="round"
    />
    <!-- Bubble letter T -->
    <path
      d="M48 20 Q48 14 54 14 L82 14 Q88 14 88 20 L88 28 Q88 34 82 34 L74 34 L74 74 Q74 80 68 80 L62 80 Q56 80 56 74 L56 34 L54 34 Q48 34 48 28 Z"
      fill="#FF6663"
      stroke="#000000"
      stroke-width="3"
      stroke-linejoin="round"
    />
  </g>
</svg>
